<mxfile host="65bd71144e">
    <diagram id="RWmy9Veurz-q1vTmXL3t" name="第 1 页">
        <mxGraphModel dx="3540" dy="1956" grid="1" gridSize="10" guides="1" tooltips="1" connect="1" arrows="1" fold="1" page="1" pageScale="1" pageWidth="3300" pageHeight="4681" math="0" shadow="0">
            <root>
                <mxCell id="0"/>
                <mxCell id="1" parent="0"/>
                <mxCell id="52" value="&lt;font style=&quot;font-size: 30px;&quot;&gt;因&lt;/font&gt;" style="text;html=1;align=center;verticalAlign=middle;resizable=0;points=[];autosize=1;strokeColor=none;fillColor=none;" vertex="1" parent="1">
                    <mxGeometry x="358.72" y="160" width="50" height="50" as="geometry"/>
                </mxCell>
                <mxCell id="53" value="&lt;font style=&quot;font-size: 30px;&quot;&gt;果&lt;/font&gt;" style="text;html=1;align=center;verticalAlign=middle;resizable=0;points=[];autosize=1;strokeColor=none;fillColor=none;" vertex="1" parent="1">
                    <mxGeometry x="1158.72" y="160" width="50" height="50" as="geometry"/>
                </mxCell>
                <mxCell id="55" value="C1" style="ellipse;whiteSpace=wrap;html=1;aspect=fixed;fontSize=30;" vertex="1" parent="1">
                    <mxGeometry x="358.72" y="255" width="60" height="60" as="geometry"/>
                </mxCell>
                <mxCell id="56" value="C2" style="ellipse;whiteSpace=wrap;html=1;aspect=fixed;fontSize=30;" vertex="1" parent="1">
                    <mxGeometry x="358.72" y="355" width="60" height="60" as="geometry"/>
                </mxCell>
                <mxCell id="57" value="C3" style="ellipse;whiteSpace=wrap;html=1;aspect=fixed;fontSize=30;" vertex="1" parent="1">
                    <mxGeometry x="358.72" y="455" width="60" height="60" as="geometry"/>
                </mxCell>
                <mxCell id="58" value="C4" style="ellipse;whiteSpace=wrap;html=1;aspect=fixed;fontSize=30;" vertex="1" parent="1">
                    <mxGeometry x="358.72" y="555" width="60" height="60" as="geometry"/>
                </mxCell>
                <mxCell id="61" value="E1" style="ellipse;whiteSpace=wrap;html=1;aspect=fixed;fontSize=30;" vertex="1" parent="1">
                    <mxGeometry x="1153.72" y="255" width="60" height="60" as="geometry"/>
                </mxCell>
                <mxCell id="62" value="E2" style="ellipse;whiteSpace=wrap;html=1;aspect=fixed;fontSize=30;" vertex="1" parent="1">
                    <mxGeometry x="1153.72" y="355" width="60" height="60" as="geometry"/>
                </mxCell>
                <mxCell id="63" value="E3" style="ellipse;whiteSpace=wrap;html=1;aspect=fixed;fontSize=30;" vertex="1" parent="1">
                    <mxGeometry x="1153.72" y="455" width="60" height="60" as="geometry"/>
                </mxCell>
                <mxCell id="64" value="E4" style="ellipse;whiteSpace=wrap;html=1;aspect=fixed;fontSize=30;" vertex="1" parent="1">
                    <mxGeometry x="1153.72" y="555" width="60" height="60" as="geometry"/>
                </mxCell>
                <mxCell id="68" value="" style="group" vertex="1" connectable="0" parent="1">
                    <mxGeometry x="365.0023005764882" y="475.0023005764883" width="148.71769942351176" height="109.78539884702337" as="geometry"/>
                </mxCell>
                <mxCell id="66" value="" style="shape=partialRectangle;whiteSpace=wrap;html=1;bottom=0;right=0;fillColor=none;fontSize=30;rotation=-225;" vertex="1" parent="68">
                    <mxGeometry x="16.747699423511733" y="15.407699423511644" width="76.29" height="78.97" as="geometry"/>
                </mxCell>
                <mxCell id="67" value="E" style="text;html=1;align=center;verticalAlign=middle;resizable=0;points=[];autosize=1;strokeColor=none;fillColor=none;fontSize=30;" vertex="1" parent="68">
                    <mxGeometry x="108.71769942351176" y="36.00769942351167" width="40" height="50" as="geometry"/>
                </mxCell>
                <mxCell id="65" value="E5" style="ellipse;whiteSpace=wrap;html=1;aspect=fixed;fontSize=30;" vertex="1" parent="1">
                    <mxGeometry x="1153.72" y="655" width="60" height="60" as="geometry"/>
                </mxCell>
                <mxCell id="69" value="" style="group" vertex="1" connectable="0" parent="1">
                    <mxGeometry x="363.72230057648824" y="285.0023005764883" width="148.71769942351176" height="109.78539884702337" as="geometry"/>
                </mxCell>
                <mxCell id="70" value="" style="shape=partialRectangle;whiteSpace=wrap;html=1;bottom=0;right=0;fillColor=none;fontSize=30;rotation=-225;" vertex="1" parent="69">
                    <mxGeometry x="16.747699423511733" y="15.407699423511644" width="76.29" height="78.97" as="geometry"/>
                </mxCell>
                <mxCell id="71" value="E" style="text;html=1;align=center;verticalAlign=middle;resizable=0;points=[];autosize=1;strokeColor=none;fillColor=none;fontSize=30;" vertex="1" parent="69">
                    <mxGeometry x="108.71769942351176" y="36.00769942351167" width="40" height="50" as="geometry"/>
                </mxCell>
                <mxCell id="77" value="" style="curved=1;endArrow=classic;html=1;fontSize=30;exitX=1.02;exitY=0.647;exitDx=0;exitDy=0;exitPerimeter=0;entryX=1;entryY=0.5;entryDx=0;entryDy=0;" edge="1" parent="1" source="62" target="61">
                    <mxGeometry width="50" height="50" relative="1" as="geometry">
                        <mxPoint x="903.72" y="495" as="sourcePoint"/>
                        <mxPoint x="953.72" y="445" as="targetPoint"/>
                        <Array as="points">
                            <mxPoint x="1283.72" y="335"/>
                        </Array>
                    </mxGeometry>
                </mxCell>
                <mxCell id="78" value="R" style="text;html=1;align=center;verticalAlign=middle;resizable=0;points=[];autosize=1;strokeColor=none;fillColor=none;fontSize=30;" vertex="1" parent="1">
                    <mxGeometry x="1248.72" y="320" width="50" height="50" as="geometry"/>
                </mxCell>
                <mxCell id="80" value="" style="endArrow=none;html=1;fontSize=30;exitX=0.957;exitY=0.34;exitDx=0;exitDy=0;exitPerimeter=0;entryX=0;entryY=0.5;entryDx=0;entryDy=0;" edge="1" parent="1" source="57" target="61">
                    <mxGeometry width="50" height="50" relative="1" as="geometry">
                        <mxPoint x="903.72" y="495" as="sourcePoint"/>
                        <mxPoint x="723.72" y="425" as="targetPoint"/>
                    </mxGeometry>
                </mxCell>
                <mxCell id="81" value="" style="endArrow=none;html=1;fontSize=30;exitX=0;exitY=1;exitDx=0;exitDy=0;entryX=0;entryY=0.5;entryDx=0;entryDy=0;" edge="1" parent="1" source="70" target="61">
                    <mxGeometry width="50" height="50" relative="1" as="geometry">
                        <mxPoint x="523.7225230867895" y="364.8976994235114" as="sourcePoint"/>
                        <mxPoint x="643.72" y="385" as="targetPoint"/>
                    </mxGeometry>
                </mxCell>
                <mxCell id="82" value="" style="endArrow=none;html=1;fontSize=30;exitX=1;exitY=0.5;exitDx=0;exitDy=0;" edge="1" parent="1" source="63">
                    <mxGeometry width="50" height="50" relative="1" as="geometry">
                        <mxPoint x="1213.72" y="495" as="sourcePoint"/>
                        <mxPoint x="1363.72" y="585" as="targetPoint"/>
                    </mxGeometry>
                </mxCell>
                <mxCell id="83" value="" style="endArrow=none;html=1;fontSize=30;exitX=0.967;exitY=0.374;exitDx=0;exitDy=0;exitPerimeter=0;" edge="1" parent="1" source="61">
                    <mxGeometry width="50" height="50" relative="1" as="geometry">
                        <mxPoint x="1313.72" y="305" as="sourcePoint"/>
                        <mxPoint x="1333.72" y="325" as="targetPoint"/>
                    </mxGeometry>
                </mxCell>
                <mxCell id="84" value="" style="endArrow=none;html=1;fontSize=30;exitX=1;exitY=0.5;exitDx=0;exitDy=0;" edge="1" parent="1" source="62">
                    <mxGeometry width="50" height="50" relative="1" as="geometry">
                        <mxPoint x="1273.72" y="407.44000000000005" as="sourcePoint"/>
                        <mxPoint x="1333.72" y="325" as="targetPoint"/>
                    </mxGeometry>
                </mxCell>
                <mxCell id="85" value="I" style="text;html=1;align=center;verticalAlign=middle;resizable=0;points=[];autosize=1;strokeColor=none;fillColor=none;fontSize=30;" vertex="1" parent="1">
                    <mxGeometry x="1333.72" y="305" width="30" height="50" as="geometry"/>
                </mxCell>
                <mxCell id="86" value="" style="endArrow=none;html=1;fontSize=30;" edge="1" parent="1" source="85">
                    <mxGeometry width="50" height="50" relative="1" as="geometry">
                        <mxPoint x="1213.72" y="495" as="sourcePoint"/>
                        <mxPoint x="1433.72" y="425" as="targetPoint"/>
                    </mxGeometry>
                </mxCell>
                <mxCell id="87" value="E" style="text;html=1;align=center;verticalAlign=middle;resizable=0;points=[];autosize=1;strokeColor=none;fillColor=none;fontSize=30;" vertex="1" parent="1">
                    <mxGeometry x="1433.72" y="405" width="40" height="50" as="geometry"/>
                </mxCell>
                <mxCell id="88" value="" style="endArrow=none;html=1;fontSize=30;exitX=1;exitY=0.5;exitDx=0;exitDy=0;" edge="1" parent="1" source="64">
                    <mxGeometry width="50" height="50" relative="1" as="geometry">
                        <mxPoint x="1248.72" y="595" as="sourcePoint"/>
                        <mxPoint x="1363.72" y="585" as="targetPoint"/>
                    </mxGeometry>
                </mxCell>
                <mxCell id="89" value="" style="endArrow=none;html=1;fontSize=30;exitX=1;exitY=0.5;exitDx=0;exitDy=0;" edge="1" parent="1" source="65">
                    <mxGeometry width="50" height="50" relative="1" as="geometry">
                        <mxPoint x="1213.72" y="684.5" as="sourcePoint"/>
                        <mxPoint x="1363.72" y="585" as="targetPoint"/>
                    </mxGeometry>
                </mxCell>
                <mxCell id="90" value="I" style="text;html=1;align=center;verticalAlign=middle;resizable=0;points=[];autosize=1;strokeColor=none;fillColor=none;fontSize=30;" vertex="1" parent="1">
                    <mxGeometry x="1358.72" y="570" width="30" height="50" as="geometry"/>
                </mxCell>
                <mxCell id="91" value="" style="endArrow=none;html=1;fontSize=30;entryX=0.03;entryY=0.472;entryDx=0;entryDy=0;entryPerimeter=0;" edge="1" parent="1" source="90" target="87">
                    <mxGeometry width="50" height="50" relative="1" as="geometry">
                        <mxPoint x="1453.72" y="554.89" as="sourcePoint"/>
                        <mxPoint x="1503.72" y="495" as="targetPoint"/>
                    </mxGeometry>
                </mxCell>
                <mxCell id="92" value="&lt;font style=&quot;font-size: 30px;&quot;&gt;因&lt;/font&gt;" style="text;html=1;align=center;verticalAlign=middle;resizable=0;points=[];autosize=1;strokeColor=none;fillColor=none;" vertex="1" parent="1">
                    <mxGeometry x="340" y="900" width="50" height="50" as="geometry"/>
                </mxCell>
                <mxCell id="93" value="&lt;font style=&quot;font-size: 30px;&quot;&gt;果&lt;/font&gt;" style="text;html=1;align=center;verticalAlign=middle;resizable=0;points=[];autosize=1;strokeColor=none;fillColor=none;" vertex="1" parent="1">
                    <mxGeometry x="1140" y="900" width="50" height="50" as="geometry"/>
                </mxCell>
                <mxCell id="94" value="C1" style="ellipse;whiteSpace=wrap;html=1;aspect=fixed;fontSize=30;" vertex="1" parent="1">
                    <mxGeometry x="340" y="995" width="60" height="60" as="geometry"/>
                </mxCell>
                <mxCell id="95" value="C2" style="ellipse;whiteSpace=wrap;html=1;aspect=fixed;fontSize=30;" vertex="1" parent="1">
                    <mxGeometry x="340" y="1095" width="60" height="60" as="geometry"/>
                </mxCell>
                <mxCell id="96" value="C3" style="ellipse;whiteSpace=wrap;html=1;aspect=fixed;fontSize=30;" vertex="1" parent="1">
                    <mxGeometry x="340" y="1195" width="60" height="60" as="geometry"/>
                </mxCell>
                <mxCell id="97" value="C4" style="ellipse;whiteSpace=wrap;html=1;aspect=fixed;fontSize=30;" vertex="1" parent="1">
                    <mxGeometry x="340" y="1295" width="60" height="60" as="geometry"/>
                </mxCell>
                <mxCell id="100" value="E1" style="ellipse;whiteSpace=wrap;html=1;aspect=fixed;fontSize=30;" vertex="1" parent="1">
                    <mxGeometry x="1135" y="995" width="60" height="60" as="geometry"/>
                </mxCell>
                <mxCell id="101" value="E2" style="ellipse;whiteSpace=wrap;html=1;aspect=fixed;fontSize=30;" vertex="1" parent="1">
                    <mxGeometry x="1135" y="1095" width="60" height="60" as="geometry"/>
                </mxCell>
                <mxCell id="102" value="E3" style="ellipse;whiteSpace=wrap;html=1;aspect=fixed;fontSize=30;" vertex="1" parent="1">
                    <mxGeometry x="1135" y="1195" width="60" height="60" as="geometry"/>
                </mxCell>
                <mxCell id="103" value="E4" style="ellipse;whiteSpace=wrap;html=1;aspect=fixed;fontSize=30;" vertex="1" parent="1">
                    <mxGeometry x="1135" y="1295" width="60" height="60" as="geometry"/>
                </mxCell>
                <mxCell id="104" value="" style="group" vertex="1" connectable="0" parent="1">
                    <mxGeometry x="346.28230057648824" y="1215.0023005764883" width="148.71769942351176" height="109.78539884702337" as="geometry"/>
                </mxCell>
                <mxCell id="105" value="" style="shape=partialRectangle;whiteSpace=wrap;html=1;bottom=0;right=0;fillColor=none;fontSize=30;rotation=-225;" vertex="1" parent="104">
                    <mxGeometry x="16.747699423511733" y="15.407699423511644" width="76.29" height="78.97" as="geometry"/>
                </mxCell>
                <mxCell id="106" value="E" style="text;html=1;align=center;verticalAlign=middle;resizable=0;points=[];autosize=1;strokeColor=none;fillColor=none;fontSize=30;" vertex="1" parent="104">
                    <mxGeometry x="108.71769942351176" y="36.00769942351167" width="40" height="50" as="geometry"/>
                </mxCell>
                <mxCell id="107" value="E5" style="ellipse;whiteSpace=wrap;html=1;aspect=fixed;fontSize=30;" vertex="1" parent="1">
                    <mxGeometry x="1135" y="1395" width="60" height="60" as="geometry"/>
                </mxCell>
                <mxCell id="108" value="" style="group" vertex="1" connectable="0" parent="1">
                    <mxGeometry x="345.00230057648827" y="1025.0023005764883" width="148.71769942351176" height="109.78539884702337" as="geometry"/>
                </mxCell>
                <mxCell id="109" value="" style="shape=partialRectangle;whiteSpace=wrap;html=1;bottom=0;right=0;fillColor=none;fontSize=30;rotation=-225;" vertex="1" parent="108">
                    <mxGeometry x="16.747699423511733" y="15.407699423511644" width="76.29" height="78.97" as="geometry"/>
                </mxCell>
                <mxCell id="110" value="E" style="text;html=1;align=center;verticalAlign=middle;resizable=0;points=[];autosize=1;strokeColor=none;fillColor=none;fontSize=30;" vertex="1" parent="108">
                    <mxGeometry x="108.71769942351176" y="36.00769942351167" width="40" height="50" as="geometry"/>
                </mxCell>
                <mxCell id="111" value="" style="curved=1;endArrow=classic;html=1;fontSize=30;exitX=1.02;exitY=0.647;exitDx=0;exitDy=0;exitPerimeter=0;entryX=1;entryY=0.5;entryDx=0;entryDy=0;" edge="1" parent="1" source="101" target="100">
                    <mxGeometry width="50" height="50" relative="1" as="geometry">
                        <mxPoint x="885" y="1235" as="sourcePoint"/>
                        <mxPoint x="935" y="1185" as="targetPoint"/>
                        <Array as="points">
                            <mxPoint x="1265" y="1075"/>
                        </Array>
                    </mxGeometry>
                </mxCell>
                <mxCell id="112" value="R" style="text;html=1;align=center;verticalAlign=middle;resizable=0;points=[];autosize=1;strokeColor=none;fillColor=none;fontSize=30;" vertex="1" parent="1">
                    <mxGeometry x="1230" y="1060" width="50" height="50" as="geometry"/>
                </mxCell>
                <mxCell id="113" value="" style="endArrow=none;html=1;fontSize=30;exitX=1;exitY=0.5;exitDx=0;exitDy=0;entryX=0;entryY=0.5;entryDx=0;entryDy=0;" edge="1" parent="1" source="97" target="102">
                    <mxGeometry width="50" height="50" relative="1" as="geometry">
                        <mxPoint x="885" y="1235" as="sourcePoint"/>
                        <mxPoint x="705" y="1165" as="targetPoint"/>
                    </mxGeometry>
                </mxCell>
                <mxCell id="114" value="" style="endArrow=none;html=1;fontSize=30;exitX=0;exitY=1;exitDx=0;exitDy=0;entryX=0;entryY=0.5;entryDx=0;entryDy=0;" edge="1" parent="1" source="109" target="102">
                    <mxGeometry width="50" height="50" relative="1" as="geometry">
                        <mxPoint x="505.00252308678944" y="1104.8976994235113" as="sourcePoint"/>
                        <mxPoint x="625" y="1125" as="targetPoint"/>
                    </mxGeometry>
                </mxCell>
                <mxCell id="115" value="" style="endArrow=none;html=1;fontSize=30;exitX=1;exitY=0.5;exitDx=0;exitDy=0;" edge="1" parent="1" source="102">
                    <mxGeometry width="50" height="50" relative="1" as="geometry">
                        <mxPoint x="1195" y="1235" as="sourcePoint"/>
                        <mxPoint x="1345" y="1325" as="targetPoint"/>
                    </mxGeometry>
                </mxCell>
                <mxCell id="116" value="" style="endArrow=none;html=1;fontSize=30;exitX=0.967;exitY=0.374;exitDx=0;exitDy=0;exitPerimeter=0;" edge="1" parent="1" source="100">
                    <mxGeometry width="50" height="50" relative="1" as="geometry">
                        <mxPoint x="1295" y="1045" as="sourcePoint"/>
                        <mxPoint x="1315" y="1065" as="targetPoint"/>
                    </mxGeometry>
                </mxCell>
                <mxCell id="117" value="" style="endArrow=none;html=1;fontSize=30;exitX=1;exitY=0.5;exitDx=0;exitDy=0;" edge="1" parent="1" source="101">
                    <mxGeometry width="50" height="50" relative="1" as="geometry">
                        <mxPoint x="1255" y="1147.44" as="sourcePoint"/>
                        <mxPoint x="1315" y="1065" as="targetPoint"/>
                    </mxGeometry>
                </mxCell>
                <mxCell id="118" value="I" style="text;html=1;align=center;verticalAlign=middle;resizable=0;points=[];autosize=1;strokeColor=none;fillColor=none;fontSize=30;" vertex="1" parent="1">
                    <mxGeometry x="1315" y="1045" width="30" height="50" as="geometry"/>
                </mxCell>
                <mxCell id="119" value="" style="endArrow=none;html=1;fontSize=30;" edge="1" parent="1" source="118">
                    <mxGeometry width="50" height="50" relative="1" as="geometry">
                        <mxPoint x="1195" y="1235" as="sourcePoint"/>
                        <mxPoint x="1415" y="1165" as="targetPoint"/>
                    </mxGeometry>
                </mxCell>
                <mxCell id="120" value="E" style="text;html=1;align=center;verticalAlign=middle;resizable=0;points=[];autosize=1;strokeColor=none;fillColor=none;fontSize=30;" vertex="1" parent="1">
                    <mxGeometry x="1415" y="1145" width="40" height="50" as="geometry"/>
                </mxCell>
                <mxCell id="121" value="" style="endArrow=none;html=1;fontSize=30;exitX=1;exitY=0.5;exitDx=0;exitDy=0;" edge="1" parent="1" source="103">
                    <mxGeometry width="50" height="50" relative="1" as="geometry">
                        <mxPoint x="1230" y="1335" as="sourcePoint"/>
                        <mxPoint x="1345" y="1325" as="targetPoint"/>
                    </mxGeometry>
                </mxCell>
                <mxCell id="122" value="" style="endArrow=none;html=1;fontSize=30;exitX=1;exitY=0.5;exitDx=0;exitDy=0;" edge="1" parent="1" source="107">
                    <mxGeometry width="50" height="50" relative="1" as="geometry">
                        <mxPoint x="1195" y="1424.5" as="sourcePoint"/>
                        <mxPoint x="1345" y="1325" as="targetPoint"/>
                    </mxGeometry>
                </mxCell>
                <mxCell id="123" value="I" style="text;html=1;align=center;verticalAlign=middle;resizable=0;points=[];autosize=1;strokeColor=none;fillColor=none;fontSize=30;" vertex="1" parent="1">
                    <mxGeometry x="1340" y="1310" width="30" height="50" as="geometry"/>
                </mxCell>
                <mxCell id="124" value="" style="endArrow=none;html=1;fontSize=30;entryX=0.03;entryY=0.472;entryDx=0;entryDy=0;entryPerimeter=0;" edge="1" parent="1" source="123" target="120">
                    <mxGeometry width="50" height="50" relative="1" as="geometry">
                        <mxPoint x="1435" y="1294.8899999999999" as="sourcePoint"/>
                        <mxPoint x="1485" y="1235" as="targetPoint"/>
                    </mxGeometry>
                </mxCell>
                <mxCell id="125" value="&lt;font style=&quot;font-size: 30px;&quot;&gt;因&lt;/font&gt;" style="text;html=1;align=center;verticalAlign=middle;resizable=0;points=[];autosize=1;strokeColor=none;fillColor=none;" vertex="1" parent="1">
                    <mxGeometry x="346.28" y="1630" width="50" height="50" as="geometry"/>
                </mxCell>
                <mxCell id="126" value="&lt;font style=&quot;font-size: 30px;&quot;&gt;果&lt;/font&gt;" style="text;html=1;align=center;verticalAlign=middle;resizable=0;points=[];autosize=1;strokeColor=none;fillColor=none;" vertex="1" parent="1">
                    <mxGeometry x="1146.28" y="1630" width="50" height="50" as="geometry"/>
                </mxCell>
                <mxCell id="127" value="C1" style="ellipse;whiteSpace=wrap;html=1;aspect=fixed;fontSize=30;" vertex="1" parent="1">
                    <mxGeometry x="346.28" y="1725" width="60" height="60" as="geometry"/>
                </mxCell>
                <mxCell id="128" value="C2" style="ellipse;whiteSpace=wrap;html=1;aspect=fixed;fontSize=30;" vertex="1" parent="1">
                    <mxGeometry x="346.28" y="1825" width="60" height="60" as="geometry"/>
                </mxCell>
                <mxCell id="129" value="C3" style="ellipse;whiteSpace=wrap;html=1;aspect=fixed;fontSize=30;" vertex="1" parent="1">
                    <mxGeometry x="346.28" y="1925" width="60" height="60" as="geometry"/>
                </mxCell>
                <mxCell id="130" value="C4" style="ellipse;whiteSpace=wrap;html=1;aspect=fixed;fontSize=30;" vertex="1" parent="1">
                    <mxGeometry x="346.28" y="2025" width="60" height="60" as="geometry"/>
                </mxCell>
                <mxCell id="133" value="E1" style="ellipse;whiteSpace=wrap;html=1;aspect=fixed;fontSize=30;" vertex="1" parent="1">
                    <mxGeometry x="1141.28" y="1725" width="60" height="60" as="geometry"/>
                </mxCell>
                <mxCell id="134" value="E2" style="ellipse;whiteSpace=wrap;html=1;aspect=fixed;fontSize=30;" vertex="1" parent="1">
                    <mxGeometry x="1141.28" y="1825" width="60" height="60" as="geometry"/>
                </mxCell>
                <mxCell id="135" value="E3" style="ellipse;whiteSpace=wrap;html=1;aspect=fixed;fontSize=30;" vertex="1" parent="1">
                    <mxGeometry x="1141.28" y="1925" width="60" height="60" as="geometry"/>
                </mxCell>
                <mxCell id="136" value="E4" style="ellipse;whiteSpace=wrap;html=1;aspect=fixed;fontSize=30;" vertex="1" parent="1">
                    <mxGeometry x="1141.28" y="2025" width="60" height="60" as="geometry"/>
                </mxCell>
                <mxCell id="137" value="" style="group" vertex="1" connectable="0" parent="1">
                    <mxGeometry x="352.56230057648827" y="1945.0023005764883" width="148.71769942351176" height="109.78539884702337" as="geometry"/>
                </mxCell>
                <mxCell id="138" value="" style="shape=partialRectangle;whiteSpace=wrap;html=1;bottom=0;right=0;fillColor=none;fontSize=30;rotation=-225;" vertex="1" parent="137">
                    <mxGeometry x="16.747699423511733" y="15.407699423511644" width="76.29" height="78.97" as="geometry"/>
                </mxCell>
                <mxCell id="139" value="E" style="text;html=1;align=center;verticalAlign=middle;resizable=0;points=[];autosize=1;strokeColor=none;fillColor=none;fontSize=30;" vertex="1" parent="137">
                    <mxGeometry x="108.71769942351176" y="36.00769942351167" width="40" height="50" as="geometry"/>
                </mxCell>
                <mxCell id="140" value="E5" style="ellipse;whiteSpace=wrap;html=1;aspect=fixed;fontSize=30;" vertex="1" parent="1">
                    <mxGeometry x="1141.28" y="2125" width="60" height="60" as="geometry"/>
                </mxCell>
                <mxCell id="141" value="" style="group" vertex="1" connectable="0" parent="1">
                    <mxGeometry x="351.2823005764883" y="1755.0023005764883" width="148.71769942351176" height="109.78539884702337" as="geometry"/>
                </mxCell>
                <mxCell id="142" value="" style="shape=partialRectangle;whiteSpace=wrap;html=1;bottom=0;right=0;fillColor=none;fontSize=30;rotation=-225;" vertex="1" parent="141">
                    <mxGeometry x="16.747699423511733" y="15.407699423511644" width="76.29" height="78.97" as="geometry"/>
                </mxCell>
                <mxCell id="143" value="E" style="text;html=1;align=center;verticalAlign=middle;resizable=0;points=[];autosize=1;strokeColor=none;fillColor=none;fontSize=30;" vertex="1" parent="141">
                    <mxGeometry x="108.71769942351176" y="36.00769942351167" width="40" height="50" as="geometry"/>
                </mxCell>
                <mxCell id="144" value="" style="curved=1;endArrow=classic;html=1;fontSize=30;exitX=1.02;exitY=0.647;exitDx=0;exitDy=0;exitPerimeter=0;entryX=1;entryY=0.5;entryDx=0;entryDy=0;" edge="1" parent="1" source="134" target="133">
                    <mxGeometry width="50" height="50" relative="1" as="geometry">
                        <mxPoint x="891.28" y="1965" as="sourcePoint"/>
                        <mxPoint x="941.28" y="1915" as="targetPoint"/>
                        <Array as="points">
                            <mxPoint x="1271.28" y="1805"/>
                        </Array>
                    </mxGeometry>
                </mxCell>
                <mxCell id="145" value="R" style="text;html=1;align=center;verticalAlign=middle;resizable=0;points=[];autosize=1;strokeColor=none;fillColor=none;fontSize=30;" vertex="1" parent="1">
                    <mxGeometry x="1236.28" y="1790" width="50" height="50" as="geometry"/>
                </mxCell>
                <mxCell id="146" value="" style="endArrow=none;html=1;fontSize=30;exitX=0;exitY=1;exitDx=0;exitDy=0;entryX=0;entryY=0.5;entryDx=0;entryDy=0;" edge="1" parent="1" source="138" target="134">
                    <mxGeometry width="50" height="50" relative="1" as="geometry">
                        <mxPoint x="891.28" y="1965" as="sourcePoint"/>
                        <mxPoint x="711.28" y="1895" as="targetPoint"/>
                    </mxGeometry>
                </mxCell>
                <mxCell id="147" value="" style="endArrow=none;html=1;fontSize=30;exitX=1;exitY=0;exitDx=0;exitDy=0;entryX=0;entryY=0.5;entryDx=0;entryDy=0;" edge="1" parent="1" source="142" target="134">
                    <mxGeometry width="50" height="50" relative="1" as="geometry">
                        <mxPoint x="511.2825230867894" y="1834.8976994235113" as="sourcePoint"/>
                        <mxPoint x="631.28" y="1855" as="targetPoint"/>
                    </mxGeometry>
                </mxCell>
                <mxCell id="148" value="" style="endArrow=none;html=1;fontSize=30;exitX=1;exitY=0.5;exitDx=0;exitDy=0;" edge="1" parent="1" source="135">
                    <mxGeometry width="50" height="50" relative="1" as="geometry">
                        <mxPoint x="1201.28" y="1965" as="sourcePoint"/>
                        <mxPoint x="1351.28" y="2055" as="targetPoint"/>
                    </mxGeometry>
                </mxCell>
                <mxCell id="149" value="" style="endArrow=none;html=1;fontSize=30;exitX=0.967;exitY=0.374;exitDx=0;exitDy=0;exitPerimeter=0;" edge="1" parent="1" source="133">
                    <mxGeometry width="50" height="50" relative="1" as="geometry">
                        <mxPoint x="1301.28" y="1775" as="sourcePoint"/>
                        <mxPoint x="1321.28" y="1795" as="targetPoint"/>
                    </mxGeometry>
                </mxCell>
                <mxCell id="150" value="" style="endArrow=none;html=1;fontSize=30;exitX=1;exitY=0.5;exitDx=0;exitDy=0;" edge="1" parent="1" source="134">
                    <mxGeometry width="50" height="50" relative="1" as="geometry">
                        <mxPoint x="1261.28" y="1877.44" as="sourcePoint"/>
                        <mxPoint x="1321.28" y="1795" as="targetPoint"/>
                    </mxGeometry>
                </mxCell>
                <mxCell id="151" value="I" style="text;html=1;align=center;verticalAlign=middle;resizable=0;points=[];autosize=1;strokeColor=none;fillColor=none;fontSize=30;" vertex="1" parent="1">
                    <mxGeometry x="1321.28" y="1775" width="30" height="50" as="geometry"/>
                </mxCell>
                <mxCell id="152" value="" style="endArrow=none;html=1;fontSize=30;" edge="1" parent="1" source="151">
                    <mxGeometry width="50" height="50" relative="1" as="geometry">
                        <mxPoint x="1201.28" y="1965" as="sourcePoint"/>
                        <mxPoint x="1421.28" y="1895" as="targetPoint"/>
                    </mxGeometry>
                </mxCell>
                <mxCell id="153" value="E" style="text;html=1;align=center;verticalAlign=middle;resizable=0;points=[];autosize=1;strokeColor=none;fillColor=none;fontSize=30;" vertex="1" parent="1">
                    <mxGeometry x="1421.28" y="1875" width="40" height="50" as="geometry"/>
                </mxCell>
                <mxCell id="154" value="" style="endArrow=none;html=1;fontSize=30;exitX=1;exitY=0.5;exitDx=0;exitDy=0;" edge="1" parent="1" source="136">
                    <mxGeometry width="50" height="50" relative="1" as="geometry">
                        <mxPoint x="1236.28" y="2065" as="sourcePoint"/>
                        <mxPoint x="1351.28" y="2055" as="targetPoint"/>
                    </mxGeometry>
                </mxCell>
                <mxCell id="155" value="" style="endArrow=none;html=1;fontSize=30;exitX=1;exitY=0.5;exitDx=0;exitDy=0;" edge="1" parent="1" source="140">
                    <mxGeometry width="50" height="50" relative="1" as="geometry">
                        <mxPoint x="1201.28" y="2154.5" as="sourcePoint"/>
                        <mxPoint x="1351.28" y="2055" as="targetPoint"/>
                    </mxGeometry>
                </mxCell>
                <mxCell id="156" value="I" style="text;html=1;align=center;verticalAlign=middle;resizable=0;points=[];autosize=1;strokeColor=none;fillColor=none;fontSize=30;" vertex="1" parent="1">
                    <mxGeometry x="1346.28" y="2040" width="30" height="50" as="geometry"/>
                </mxCell>
                <mxCell id="157" value="" style="endArrow=none;html=1;fontSize=30;entryX=0.03;entryY=0.472;entryDx=0;entryDy=0;entryPerimeter=0;" edge="1" parent="1" source="156" target="153">
                    <mxGeometry width="50" height="50" relative="1" as="geometry">
                        <mxPoint x="1441.28" y="2024.8899999999999" as="sourcePoint"/>
                        <mxPoint x="1491.28" y="1965" as="targetPoint"/>
                    </mxGeometry>
                </mxCell>
                <mxCell id="158" value="^" style="text;html=1;align=center;verticalAlign=middle;resizable=0;points=[];autosize=1;strokeColor=none;fillColor=none;fontSize=30;" vertex="1" parent="1">
                    <mxGeometry x="950" y="1200" width="40" height="50" as="geometry"/>
                </mxCell>
                <mxCell id="159" value="^" style="text;html=1;align=center;verticalAlign=middle;resizable=0;points=[];autosize=1;strokeColor=none;fillColor=none;fontSize=30;" vertex="1" parent="1">
                    <mxGeometry x="856.28" y="1855" width="40" height="50" as="geometry"/>
                </mxCell>
                <mxCell id="160" value="^" style="text;html=1;align=center;verticalAlign=middle;resizable=0;points=[];autosize=1;strokeColor=none;fillColor=none;fontSize=30;" vertex="1" parent="1">
                    <mxGeometry x="943.72" y="295" width="40" height="50" as="geometry"/>
                </mxCell>
                <mxCell id="196" value="&lt;font style=&quot;font-size: 30px;&quot;&gt;因&lt;/font&gt;" style="text;html=1;align=center;verticalAlign=middle;resizable=0;points=[];autosize=1;strokeColor=none;fillColor=none;" vertex="1" parent="1">
                    <mxGeometry x="1765" y="150" width="50" height="50" as="geometry"/>
                </mxCell>
                <mxCell id="197" value="&lt;font style=&quot;font-size: 30px;&quot;&gt;果&lt;/font&gt;" style="text;html=1;align=center;verticalAlign=middle;resizable=0;points=[];autosize=1;strokeColor=none;fillColor=none;" vertex="1" parent="1">
                    <mxGeometry x="2565" y="150" width="50" height="50" as="geometry"/>
                </mxCell>
                <mxCell id="198" value="C1" style="ellipse;whiteSpace=wrap;html=1;aspect=fixed;fontSize=30;" vertex="1" parent="1">
                    <mxGeometry x="1765" y="245" width="60" height="60" as="geometry"/>
                </mxCell>
                <mxCell id="199" value="C2" style="ellipse;whiteSpace=wrap;html=1;aspect=fixed;fontSize=30;" vertex="1" parent="1">
                    <mxGeometry x="1765" y="345" width="60" height="60" as="geometry"/>
                </mxCell>
                <mxCell id="200" value="C3" style="ellipse;whiteSpace=wrap;html=1;aspect=fixed;fontSize=30;" vertex="1" parent="1">
                    <mxGeometry x="1765" y="445" width="60" height="60" as="geometry"/>
                </mxCell>
                <mxCell id="201" value="C4" style="ellipse;whiteSpace=wrap;html=1;aspect=fixed;fontSize=30;" vertex="1" parent="1">
                    <mxGeometry x="1765" y="545" width="60" height="60" as="geometry"/>
                </mxCell>
                <mxCell id="204" value="E1" style="ellipse;whiteSpace=wrap;html=1;aspect=fixed;fontSize=30;" vertex="1" parent="1">
                    <mxGeometry x="2560" y="245" width="60" height="60" as="geometry"/>
                </mxCell>
                <mxCell id="205" value="E2" style="ellipse;whiteSpace=wrap;html=1;aspect=fixed;fontSize=30;" vertex="1" parent="1">
                    <mxGeometry x="2560" y="345" width="60" height="60" as="geometry"/>
                </mxCell>
                <mxCell id="206" value="E3" style="ellipse;whiteSpace=wrap;html=1;aspect=fixed;fontSize=30;" vertex="1" parent="1">
                    <mxGeometry x="2560" y="445" width="60" height="60" as="geometry"/>
                </mxCell>
                <mxCell id="207" value="E4" style="ellipse;whiteSpace=wrap;html=1;aspect=fixed;fontSize=30;" vertex="1" parent="1">
                    <mxGeometry x="2560" y="545" width="60" height="60" as="geometry"/>
                </mxCell>
                <mxCell id="208" value="" style="group" vertex="1" connectable="0" parent="1">
                    <mxGeometry x="1771.2823005764883" y="465.0023005764883" width="148.71769942351176" height="109.78539884702337" as="geometry"/>
                </mxCell>
                <mxCell id="209" value="" style="shape=partialRectangle;whiteSpace=wrap;html=1;bottom=0;right=0;fillColor=none;fontSize=30;rotation=-225;" vertex="1" parent="208">
                    <mxGeometry x="16.747699423511733" y="15.407699423511644" width="76.29" height="78.97" as="geometry"/>
                </mxCell>
                <mxCell id="210" value="E" style="text;html=1;align=center;verticalAlign=middle;resizable=0;points=[];autosize=1;strokeColor=none;fillColor=none;fontSize=30;" vertex="1" parent="208">
                    <mxGeometry x="108.71769942351176" y="36.00769942351167" width="40" height="50" as="geometry"/>
                </mxCell>
                <mxCell id="211" value="E5" style="ellipse;whiteSpace=wrap;html=1;aspect=fixed;fontSize=30;" vertex="1" parent="1">
                    <mxGeometry x="2560" y="645" width="60" height="60" as="geometry"/>
                </mxCell>
                <mxCell id="212" value="" style="group" vertex="1" connectable="0" parent="1">
                    <mxGeometry x="1770.0023005764883" y="275.0023005764883" width="148.71769942351176" height="109.78539884702337" as="geometry"/>
                </mxCell>
                <mxCell id="213" value="" style="shape=partialRectangle;whiteSpace=wrap;html=1;bottom=0;right=0;fillColor=none;fontSize=30;rotation=-225;" vertex="1" parent="212">
                    <mxGeometry x="16.747699423511733" y="15.407699423511644" width="76.29" height="78.97" as="geometry"/>
                </mxCell>
                <mxCell id="214" value="E" style="text;html=1;align=center;verticalAlign=middle;resizable=0;points=[];autosize=1;strokeColor=none;fillColor=none;fontSize=30;" vertex="1" parent="212">
                    <mxGeometry x="108.71769942351176" y="36.00769942351167" width="40" height="50" as="geometry"/>
                </mxCell>
                <mxCell id="215" value="" style="curved=1;endArrow=classic;html=1;fontSize=30;exitX=1.02;exitY=0.647;exitDx=0;exitDy=0;exitPerimeter=0;entryX=1;entryY=0.5;entryDx=0;entryDy=0;" edge="1" parent="1" source="205" target="204">
                    <mxGeometry width="50" height="50" relative="1" as="geometry">
                        <mxPoint x="2310" y="485" as="sourcePoint"/>
                        <mxPoint x="2360" y="435" as="targetPoint"/>
                        <Array as="points">
                            <mxPoint x="2690" y="325"/>
                        </Array>
                    </mxGeometry>
                </mxCell>
                <mxCell id="216" value="R" style="text;html=1;align=center;verticalAlign=middle;resizable=0;points=[];autosize=1;strokeColor=none;fillColor=none;fontSize=30;" vertex="1" parent="1">
                    <mxGeometry x="2655" y="310" width="50" height="50" as="geometry"/>
                </mxCell>
                <mxCell id="217" value="" style="endArrow=none;html=1;fontSize=30;exitX=1;exitY=0;exitDx=0;exitDy=0;entryX=0;entryY=0.5;entryDx=0;entryDy=0;" edge="1" parent="1" source="209" target="204">
                    <mxGeometry width="50" height="50" relative="1" as="geometry">
                        <mxPoint x="2310" y="485" as="sourcePoint"/>
                        <mxPoint x="2130" y="415" as="targetPoint"/>
                    </mxGeometry>
                </mxCell>
                <mxCell id="218" value="" style="endArrow=none;html=1;fontSize=30;exitX=1;exitY=0;exitDx=0;exitDy=0;entryX=0;entryY=0.5;entryDx=0;entryDy=0;" edge="1" parent="1" source="213" target="204">
                    <mxGeometry width="50" height="50" relative="1" as="geometry">
                        <mxPoint x="1930.0025230867896" y="354.8976994235113" as="sourcePoint"/>
                        <mxPoint x="2050" y="375" as="targetPoint"/>
                    </mxGeometry>
                </mxCell>
                <mxCell id="219" value="" style="endArrow=none;html=1;fontSize=30;exitX=1;exitY=0.5;exitDx=0;exitDy=0;" edge="1" parent="1" source="206">
                    <mxGeometry width="50" height="50" relative="1" as="geometry">
                        <mxPoint x="2620" y="485" as="sourcePoint"/>
                        <mxPoint x="2770" y="575" as="targetPoint"/>
                    </mxGeometry>
                </mxCell>
                <mxCell id="220" value="" style="endArrow=none;html=1;fontSize=30;exitX=0.967;exitY=0.374;exitDx=0;exitDy=0;exitPerimeter=0;" edge="1" parent="1" source="204">
                    <mxGeometry width="50" height="50" relative="1" as="geometry">
                        <mxPoint x="2720" y="295" as="sourcePoint"/>
                        <mxPoint x="2740" y="315" as="targetPoint"/>
                    </mxGeometry>
                </mxCell>
                <mxCell id="221" value="" style="endArrow=none;html=1;fontSize=30;exitX=1;exitY=0.5;exitDx=0;exitDy=0;" edge="1" parent="1" source="205">
                    <mxGeometry width="50" height="50" relative="1" as="geometry">
                        <mxPoint x="2680" y="397.44000000000005" as="sourcePoint"/>
                        <mxPoint x="2740" y="315" as="targetPoint"/>
                    </mxGeometry>
                </mxCell>
                <mxCell id="222" value="I" style="text;html=1;align=center;verticalAlign=middle;resizable=0;points=[];autosize=1;strokeColor=none;fillColor=none;fontSize=30;" vertex="1" parent="1">
                    <mxGeometry x="2740" y="295" width="30" height="50" as="geometry"/>
                </mxCell>
                <mxCell id="223" value="" style="endArrow=none;html=1;fontSize=30;" edge="1" parent="1" source="222">
                    <mxGeometry width="50" height="50" relative="1" as="geometry">
                        <mxPoint x="2620" y="485" as="sourcePoint"/>
                        <mxPoint x="2840" y="415" as="targetPoint"/>
                    </mxGeometry>
                </mxCell>
                <mxCell id="224" value="E" style="text;html=1;align=center;verticalAlign=middle;resizable=0;points=[];autosize=1;strokeColor=none;fillColor=none;fontSize=30;" vertex="1" parent="1">
                    <mxGeometry x="2840" y="395" width="40" height="50" as="geometry"/>
                </mxCell>
                <mxCell id="225" value="" style="endArrow=none;html=1;fontSize=30;exitX=1;exitY=0.5;exitDx=0;exitDy=0;" edge="1" parent="1" source="207">
                    <mxGeometry width="50" height="50" relative="1" as="geometry">
                        <mxPoint x="2655" y="585" as="sourcePoint"/>
                        <mxPoint x="2770" y="575" as="targetPoint"/>
                    </mxGeometry>
                </mxCell>
                <mxCell id="226" value="" style="endArrow=none;html=1;fontSize=30;exitX=1;exitY=0.5;exitDx=0;exitDy=0;" edge="1" parent="1" source="211">
                    <mxGeometry width="50" height="50" relative="1" as="geometry">
                        <mxPoint x="2620" y="674.5" as="sourcePoint"/>
                        <mxPoint x="2770" y="575" as="targetPoint"/>
                    </mxGeometry>
                </mxCell>
                <mxCell id="227" value="I" style="text;html=1;align=center;verticalAlign=middle;resizable=0;points=[];autosize=1;strokeColor=none;fillColor=none;fontSize=30;" vertex="1" parent="1">
                    <mxGeometry x="2765" y="560" width="30" height="50" as="geometry"/>
                </mxCell>
                <mxCell id="228" value="" style="endArrow=none;html=1;fontSize=30;entryX=0.03;entryY=0.472;entryDx=0;entryDy=0;entryPerimeter=0;" edge="1" parent="1" source="227" target="224">
                    <mxGeometry width="50" height="50" relative="1" as="geometry">
                        <mxPoint x="2860" y="544.8899999999999" as="sourcePoint"/>
                        <mxPoint x="2910" y="485" as="targetPoint"/>
                    </mxGeometry>
                </mxCell>
                <mxCell id="229" value="^" style="text;html=1;align=center;verticalAlign=middle;resizable=0;points=[];autosize=1;strokeColor=none;fillColor=none;fontSize=30;" vertex="1" parent="1">
                    <mxGeometry x="2345" y="310" width="40" height="50" as="geometry"/>
                </mxCell>
                <mxCell id="264" value="&lt;font style=&quot;font-size: 30px;&quot;&gt;因&lt;/font&gt;" style="text;html=1;align=center;verticalAlign=middle;resizable=0;points=[];autosize=1;strokeColor=none;fillColor=none;" vertex="1" parent="1">
                    <mxGeometry x="1720" y="860" width="50" height="50" as="geometry"/>
                </mxCell>
                <mxCell id="265" value="&lt;font style=&quot;font-size: 30px;&quot;&gt;果&lt;/font&gt;" style="text;html=1;align=center;verticalAlign=middle;resizable=0;points=[];autosize=1;strokeColor=none;fillColor=none;" vertex="1" parent="1">
                    <mxGeometry x="2520" y="860" width="50" height="50" as="geometry"/>
                </mxCell>
                <mxCell id="266" value="C1" style="ellipse;whiteSpace=wrap;html=1;aspect=fixed;fontSize=30;" vertex="1" parent="1">
                    <mxGeometry x="1720" y="955" width="60" height="60" as="geometry"/>
                </mxCell>
                <mxCell id="267" value="C2" style="ellipse;whiteSpace=wrap;html=1;aspect=fixed;fontSize=30;" vertex="1" parent="1">
                    <mxGeometry x="1720" y="1055" width="60" height="60" as="geometry"/>
                </mxCell>
                <mxCell id="268" value="C3" style="ellipse;whiteSpace=wrap;html=1;aspect=fixed;fontSize=30;" vertex="1" parent="1">
                    <mxGeometry x="1720" y="1155" width="60" height="60" as="geometry"/>
                </mxCell>
                <mxCell id="269" value="C4" style="ellipse;whiteSpace=wrap;html=1;aspect=fixed;fontSize=30;" vertex="1" parent="1">
                    <mxGeometry x="1720" y="1255" width="60" height="60" as="geometry"/>
                </mxCell>
                <mxCell id="272" value="E1" style="ellipse;whiteSpace=wrap;html=1;aspect=fixed;fontSize=30;" vertex="1" parent="1">
                    <mxGeometry x="2515" y="955" width="60" height="60" as="geometry"/>
                </mxCell>
                <mxCell id="273" value="E2" style="ellipse;whiteSpace=wrap;html=1;aspect=fixed;fontSize=30;" vertex="1" parent="1">
                    <mxGeometry x="2515" y="1055" width="60" height="60" as="geometry"/>
                </mxCell>
                <mxCell id="274" value="E3" style="ellipse;whiteSpace=wrap;html=1;aspect=fixed;fontSize=30;" vertex="1" parent="1">
                    <mxGeometry x="2515" y="1155" width="60" height="60" as="geometry"/>
                </mxCell>
                <mxCell id="275" value="E4" style="ellipse;whiteSpace=wrap;html=1;aspect=fixed;fontSize=30;" vertex="1" parent="1">
                    <mxGeometry x="2515" y="1255" width="60" height="60" as="geometry"/>
                </mxCell>
                <mxCell id="276" value="" style="group" vertex="1" connectable="0" parent="1">
                    <mxGeometry x="1726.2823005764883" y="1175.0023005764883" width="148.71769942351176" height="109.78539884702337" as="geometry"/>
                </mxCell>
                <mxCell id="277" value="" style="shape=partialRectangle;whiteSpace=wrap;html=1;bottom=0;right=0;fillColor=none;fontSize=30;rotation=-225;" vertex="1" parent="276">
                    <mxGeometry x="16.747699423511733" y="15.407699423511644" width="76.29" height="78.97" as="geometry"/>
                </mxCell>
                <mxCell id="278" value="E" style="text;html=1;align=center;verticalAlign=middle;resizable=0;points=[];autosize=1;strokeColor=none;fillColor=none;fontSize=30;" vertex="1" parent="276">
                    <mxGeometry x="108.71769942351176" y="36.00769942351167" width="40" height="50" as="geometry"/>
                </mxCell>
                <mxCell id="279" value="E5" style="ellipse;whiteSpace=wrap;html=1;aspect=fixed;fontSize=30;" vertex="1" parent="1">
                    <mxGeometry x="2515" y="1355" width="60" height="60" as="geometry"/>
                </mxCell>
                <mxCell id="280" value="" style="group" vertex="1" connectable="0" parent="1">
                    <mxGeometry x="1725.0023005764883" y="985.0023005764883" width="148.71769942351176" height="109.78539884702337" as="geometry"/>
                </mxCell>
                <mxCell id="281" value="" style="shape=partialRectangle;whiteSpace=wrap;html=1;bottom=0;right=0;fillColor=none;fontSize=30;rotation=-225;" vertex="1" parent="280">
                    <mxGeometry x="16.747699423511733" y="15.407699423511644" width="76.29" height="78.97" as="geometry"/>
                </mxCell>
                <mxCell id="282" value="E" style="text;html=1;align=center;verticalAlign=middle;resizable=0;points=[];autosize=1;strokeColor=none;fillColor=none;fontSize=30;" vertex="1" parent="280">
                    <mxGeometry x="108.71769942351176" y="36.00769942351167" width="40" height="50" as="geometry"/>
                </mxCell>
                <mxCell id="283" value="" style="curved=1;endArrow=classic;html=1;fontSize=30;exitX=1.02;exitY=0.647;exitDx=0;exitDy=0;exitPerimeter=0;entryX=1;entryY=0.5;entryDx=0;entryDy=0;" edge="1" parent="1" source="273" target="272">
                    <mxGeometry width="50" height="50" relative="1" as="geometry">
                        <mxPoint x="2265" y="1195" as="sourcePoint"/>
                        <mxPoint x="2315" y="1145" as="targetPoint"/>
                        <Array as="points">
                            <mxPoint x="2645" y="1035"/>
                        </Array>
                    </mxGeometry>
                </mxCell>
                <mxCell id="284" value="R" style="text;html=1;align=center;verticalAlign=middle;resizable=0;points=[];autosize=1;strokeColor=none;fillColor=none;fontSize=30;" vertex="1" parent="1">
                    <mxGeometry x="2610" y="1020" width="50" height="50" as="geometry"/>
                </mxCell>
                <mxCell id="287" value="" style="endArrow=none;html=1;fontSize=30;exitX=1;exitY=0.5;exitDx=0;exitDy=0;" edge="1" parent="1" source="274">
                    <mxGeometry width="50" height="50" relative="1" as="geometry">
                        <mxPoint x="2575" y="1195" as="sourcePoint"/>
                        <mxPoint x="2725" y="1285" as="targetPoint"/>
                    </mxGeometry>
                </mxCell>
                <mxCell id="288" value="" style="endArrow=none;html=1;fontSize=30;exitX=0.967;exitY=0.374;exitDx=0;exitDy=0;exitPerimeter=0;" edge="1" parent="1" source="272">
                    <mxGeometry width="50" height="50" relative="1" as="geometry">
                        <mxPoint x="2675" y="1005" as="sourcePoint"/>
                        <mxPoint x="2695" y="1025" as="targetPoint"/>
                    </mxGeometry>
                </mxCell>
                <mxCell id="289" value="" style="endArrow=none;html=1;fontSize=30;exitX=1;exitY=0.5;exitDx=0;exitDy=0;" edge="1" parent="1" source="273">
                    <mxGeometry width="50" height="50" relative="1" as="geometry">
                        <mxPoint x="2635" y="1107.44" as="sourcePoint"/>
                        <mxPoint x="2695" y="1025" as="targetPoint"/>
                    </mxGeometry>
                </mxCell>
                <mxCell id="290" value="I" style="text;html=1;align=center;verticalAlign=middle;resizable=0;points=[];autosize=1;strokeColor=none;fillColor=none;fontSize=30;" vertex="1" parent="1">
                    <mxGeometry x="2695" y="1005" width="30" height="50" as="geometry"/>
                </mxCell>
                <mxCell id="291" value="" style="endArrow=none;html=1;fontSize=30;" edge="1" parent="1" source="290">
                    <mxGeometry width="50" height="50" relative="1" as="geometry">
                        <mxPoint x="2575" y="1195" as="sourcePoint"/>
                        <mxPoint x="2795" y="1125" as="targetPoint"/>
                    </mxGeometry>
                </mxCell>
                <mxCell id="292" value="E" style="text;html=1;align=center;verticalAlign=middle;resizable=0;points=[];autosize=1;strokeColor=none;fillColor=none;fontSize=30;" vertex="1" parent="1">
                    <mxGeometry x="2795" y="1105" width="40" height="50" as="geometry"/>
                </mxCell>
                <mxCell id="293" value="" style="endArrow=none;html=1;fontSize=30;exitX=1;exitY=0.5;exitDx=0;exitDy=0;" edge="1" parent="1" source="275">
                    <mxGeometry width="50" height="50" relative="1" as="geometry">
                        <mxPoint x="2610" y="1295" as="sourcePoint"/>
                        <mxPoint x="2725" y="1285" as="targetPoint"/>
                    </mxGeometry>
                </mxCell>
                <mxCell id="294" value="" style="endArrow=none;html=1;fontSize=30;exitX=1;exitY=0.5;exitDx=0;exitDy=0;" edge="1" parent="1" source="279">
                    <mxGeometry width="50" height="50" relative="1" as="geometry">
                        <mxPoint x="2575" y="1384.5" as="sourcePoint"/>
                        <mxPoint x="2725" y="1285" as="targetPoint"/>
                    </mxGeometry>
                </mxCell>
                <mxCell id="295" value="I" style="text;html=1;align=center;verticalAlign=middle;resizable=0;points=[];autosize=1;strokeColor=none;fillColor=none;fontSize=30;" vertex="1" parent="1">
                    <mxGeometry x="2720" y="1270" width="30" height="50" as="geometry"/>
                </mxCell>
                <mxCell id="296" value="" style="endArrow=none;html=1;fontSize=30;entryX=0.03;entryY=0.472;entryDx=0;entryDy=0;entryPerimeter=0;" edge="1" parent="1" source="295" target="292">
                    <mxGeometry width="50" height="50" relative="1" as="geometry">
                        <mxPoint x="2815" y="1254.8899999999994" as="sourcePoint"/>
                        <mxPoint x="2865" y="1195" as="targetPoint"/>
                    </mxGeometry>
                </mxCell>
                <mxCell id="298" value="" style="endArrow=none;html=1;fontSize=30;exitX=0;exitY=1;exitDx=0;exitDy=0;" edge="1" parent="1" source="281">
                    <mxGeometry width="50" height="50" relative="1" as="geometry">
                        <mxPoint x="2220" y="980" as="sourcePoint"/>
                        <mxPoint x="2060" y="1050" as="targetPoint"/>
                    </mxGeometry>
                </mxCell>
                <mxCell id="299" value="" style="endArrow=none;html=1;fontSize=30;exitX=1;exitY=0.5;exitDx=0;exitDy=0;" edge="1" parent="1" source="267">
                    <mxGeometry width="50" height="50" relative="1" as="geometry">
                        <mxPoint x="1789.9974769132102" y="1150.0023005764879" as="sourcePoint"/>
                        <mxPoint x="2060" y="1050" as="targetPoint"/>
                    </mxGeometry>
                </mxCell>
                <mxCell id="300" value="&lt;span style=&quot;color: rgba(0, 0, 0, 0); font-family: monospace; font-size: 0px; text-align: start;&quot;&gt;%3CmxGraphModel%3E%3Croot%3E%3CmxCell%20id%3D%220%22%2F%3E%3CmxCell%20id%3D%221%22%20parent%3D%220%22%2F%3E%3CmxCell%20id%3D%222%22%20value%3D%22%22%20style%3D%22endArrow%3Dnone%3Bhtml%3D1%3BfontSize%3D30%3BexitX%3D0%3BexitY%3D1%3BexitDx%3D0%3BexitDy%3D0%3B%22%20edge%3D%221%22%20parent%3D%221%22%3E%3CmxGeometry%20width%3D%2250%22%20height%3D%2250%22%20relative%3D%221%22%20as%3D%22geometry%22%3E%3CmxPoint%20x%3D%22288.94747691321027%22%20y%3D%223835.002300576488%22%20as%3D%22sourcePoint%22%2F%3E%3CmxPoint%20x%3D%22570%22%20y%3D%223900%22%20as%3D%22targetPoint%22%2F%3E%3C%2FmxGeometry%3E%3C%2FmxCell%3E%3C%2Froot%3E%3C%2FmxGraphModel%3&lt;/span&gt;" style="text;html=1;align=center;verticalAlign=middle;resizable=0;points=[];autosize=1;strokeColor=none;fillColor=none;fontSize=30;" vertex="1" parent="1">
                    <mxGeometry x="1960" y="1015" width="20" height="50" as="geometry"/>
                </mxCell>
                <mxCell id="301" value="V" style="text;html=1;align=center;verticalAlign=middle;resizable=0;points=[];autosize=1;strokeColor=none;fillColor=none;fontSize=30;" vertex="1" parent="1">
                    <mxGeometry x="1940" y="1020" width="40" height="50" as="geometry"/>
                </mxCell>
                <mxCell id="302" value="" style="endArrow=none;html=1;fontSize=30;entryX=0;entryY=0.5;entryDx=0;entryDy=0;" edge="1" parent="1" target="275">
                    <mxGeometry width="50" height="50" relative="1" as="geometry">
                        <mxPoint x="2060" y="1050" as="sourcePoint"/>
                        <mxPoint x="2270" y="930" as="targetPoint"/>
                    </mxGeometry>
                </mxCell>
                <mxCell id="303" value="&lt;font style=&quot;font-size: 30px;&quot;&gt;因&lt;/font&gt;" style="text;html=1;align=center;verticalAlign=middle;resizable=0;points=[];autosize=1;strokeColor=none;fillColor=none;" vertex="1" parent="1">
                    <mxGeometry x="1725" y="1620" width="50" height="50" as="geometry"/>
                </mxCell>
                <mxCell id="304" value="&lt;font style=&quot;font-size: 30px;&quot;&gt;果&lt;/font&gt;" style="text;html=1;align=center;verticalAlign=middle;resizable=0;points=[];autosize=1;strokeColor=none;fillColor=none;" vertex="1" parent="1">
                    <mxGeometry x="2525" y="1620" width="50" height="50" as="geometry"/>
                </mxCell>
                <mxCell id="305" value="C1" style="ellipse;whiteSpace=wrap;html=1;aspect=fixed;fontSize=30;" vertex="1" parent="1">
                    <mxGeometry x="1725" y="1715" width="60" height="60" as="geometry"/>
                </mxCell>
                <mxCell id="306" value="C2" style="ellipse;whiteSpace=wrap;html=1;aspect=fixed;fontSize=30;" vertex="1" parent="1">
                    <mxGeometry x="1725" y="1815" width="60" height="60" as="geometry"/>
                </mxCell>
                <mxCell id="307" value="C3" style="ellipse;whiteSpace=wrap;html=1;aspect=fixed;fontSize=30;" vertex="1" parent="1">
                    <mxGeometry x="1725" y="1915" width="60" height="60" as="geometry"/>
                </mxCell>
                <mxCell id="308" value="C4" style="ellipse;whiteSpace=wrap;html=1;aspect=fixed;fontSize=30;" vertex="1" parent="1">
                    <mxGeometry x="1725" y="2015" width="60" height="60" as="geometry"/>
                </mxCell>
                <mxCell id="311" value="E1" style="ellipse;whiteSpace=wrap;html=1;aspect=fixed;fontSize=30;" vertex="1" parent="1">
                    <mxGeometry x="2520" y="1715" width="60" height="60" as="geometry"/>
                </mxCell>
                <mxCell id="312" value="E2" style="ellipse;whiteSpace=wrap;html=1;aspect=fixed;fontSize=30;" vertex="1" parent="1">
                    <mxGeometry x="2520" y="1815" width="60" height="60" as="geometry"/>
                </mxCell>
                <mxCell id="313" value="E3" style="ellipse;whiteSpace=wrap;html=1;aspect=fixed;fontSize=30;" vertex="1" parent="1">
                    <mxGeometry x="2520" y="1915" width="60" height="60" as="geometry"/>
                </mxCell>
                <mxCell id="314" value="E4" style="ellipse;whiteSpace=wrap;html=1;aspect=fixed;fontSize=30;" vertex="1" parent="1">
                    <mxGeometry x="2520" y="2015" width="60" height="60" as="geometry"/>
                </mxCell>
                <mxCell id="315" value="" style="group" vertex="1" connectable="0" parent="1">
                    <mxGeometry x="1731.2823005764883" y="1935.0023005764883" width="148.71769942351176" height="109.78539884702337" as="geometry"/>
                </mxCell>
                <mxCell id="316" value="" style="shape=partialRectangle;whiteSpace=wrap;html=1;bottom=0;right=0;fillColor=none;fontSize=30;rotation=-225;" vertex="1" parent="315">
                    <mxGeometry x="16.747699423511733" y="15.407699423511644" width="76.29" height="78.97" as="geometry"/>
                </mxCell>
                <mxCell id="317" value="E" style="text;html=1;align=center;verticalAlign=middle;resizable=0;points=[];autosize=1;strokeColor=none;fillColor=none;fontSize=30;" vertex="1" parent="315">
                    <mxGeometry x="108.71769942351176" y="36.00769942351167" width="40" height="50" as="geometry"/>
                </mxCell>
                <mxCell id="318" value="E5" style="ellipse;whiteSpace=wrap;html=1;aspect=fixed;fontSize=30;" vertex="1" parent="1">
                    <mxGeometry x="2520" y="2115" width="60" height="60" as="geometry"/>
                </mxCell>
                <mxCell id="319" value="" style="group" vertex="1" connectable="0" parent="1">
                    <mxGeometry x="1730.0023005764883" y="1745.0023005764883" width="148.71769942351176" height="109.78539884702337" as="geometry"/>
                </mxCell>
                <mxCell id="320" value="" style="shape=partialRectangle;whiteSpace=wrap;html=1;bottom=0;right=0;fillColor=none;fontSize=30;rotation=-225;" vertex="1" parent="319">
                    <mxGeometry x="16.747699423511733" y="15.407699423511644" width="76.29" height="78.97" as="geometry"/>
                </mxCell>
                <mxCell id="321" value="E" style="text;html=1;align=center;verticalAlign=middle;resizable=0;points=[];autosize=1;strokeColor=none;fillColor=none;fontSize=30;" vertex="1" parent="319">
                    <mxGeometry x="108.71769942351176" y="36.00769942351167" width="40" height="50" as="geometry"/>
                </mxCell>
                <mxCell id="322" value="" style="curved=1;endArrow=classic;html=1;fontSize=30;exitX=1.02;exitY=0.647;exitDx=0;exitDy=0;exitPerimeter=0;entryX=1;entryY=0.5;entryDx=0;entryDy=0;" edge="1" parent="1" source="312" target="311">
                    <mxGeometry width="50" height="50" relative="1" as="geometry">
                        <mxPoint x="2270" y="1955" as="sourcePoint"/>
                        <mxPoint x="2320" y="1905" as="targetPoint"/>
                        <Array as="points">
                            <mxPoint x="2650" y="1795"/>
                        </Array>
                    </mxGeometry>
                </mxCell>
                <mxCell id="323" value="R" style="text;html=1;align=center;verticalAlign=middle;resizable=0;points=[];autosize=1;strokeColor=none;fillColor=none;fontSize=30;" vertex="1" parent="1">
                    <mxGeometry x="2615" y="1780" width="50" height="50" as="geometry"/>
                </mxCell>
                <mxCell id="324" value="" style="endArrow=none;html=1;fontSize=30;exitX=1;exitY=0.5;exitDx=0;exitDy=0;" edge="1" parent="1" source="313">
                    <mxGeometry width="50" height="50" relative="1" as="geometry">
                        <mxPoint x="2580" y="1955" as="sourcePoint"/>
                        <mxPoint x="2730" y="2045" as="targetPoint"/>
                    </mxGeometry>
                </mxCell>
                <mxCell id="325" value="" style="endArrow=none;html=1;fontSize=30;exitX=0.967;exitY=0.374;exitDx=0;exitDy=0;exitPerimeter=0;" edge="1" parent="1" source="311">
                    <mxGeometry width="50" height="50" relative="1" as="geometry">
                        <mxPoint x="2680" y="1765" as="sourcePoint"/>
                        <mxPoint x="2700" y="1785" as="targetPoint"/>
                    </mxGeometry>
                </mxCell>
                <mxCell id="326" value="" style="endArrow=none;html=1;fontSize=30;exitX=1;exitY=0.5;exitDx=0;exitDy=0;" edge="1" parent="1" source="312">
                    <mxGeometry width="50" height="50" relative="1" as="geometry">
                        <mxPoint x="2640" y="1867.44" as="sourcePoint"/>
                        <mxPoint x="2700" y="1785" as="targetPoint"/>
                    </mxGeometry>
                </mxCell>
                <mxCell id="327" value="I" style="text;html=1;align=center;verticalAlign=middle;resizable=0;points=[];autosize=1;strokeColor=none;fillColor=none;fontSize=30;" vertex="1" parent="1">
                    <mxGeometry x="2700" y="1765" width="30" height="50" as="geometry"/>
                </mxCell>
                <mxCell id="328" value="" style="endArrow=none;html=1;fontSize=30;" edge="1" parent="1" source="327">
                    <mxGeometry width="50" height="50" relative="1" as="geometry">
                        <mxPoint x="2580" y="1955" as="sourcePoint"/>
                        <mxPoint x="2800" y="1885" as="targetPoint"/>
                    </mxGeometry>
                </mxCell>
                <mxCell id="329" value="E" style="text;html=1;align=center;verticalAlign=middle;resizable=0;points=[];autosize=1;strokeColor=none;fillColor=none;fontSize=30;" vertex="1" parent="1">
                    <mxGeometry x="2800" y="1865" width="40" height="50" as="geometry"/>
                </mxCell>
                <mxCell id="330" value="" style="endArrow=none;html=1;fontSize=30;exitX=1;exitY=0.5;exitDx=0;exitDy=0;" edge="1" parent="1" source="314">
                    <mxGeometry width="50" height="50" relative="1" as="geometry">
                        <mxPoint x="2615" y="2055" as="sourcePoint"/>
                        <mxPoint x="2730" y="2045" as="targetPoint"/>
                    </mxGeometry>
                </mxCell>
                <mxCell id="331" value="" style="endArrow=none;html=1;fontSize=30;exitX=1;exitY=0.5;exitDx=0;exitDy=0;" edge="1" parent="1" source="318">
                    <mxGeometry width="50" height="50" relative="1" as="geometry">
                        <mxPoint x="2580" y="2144.5" as="sourcePoint"/>
                        <mxPoint x="2730" y="2045" as="targetPoint"/>
                    </mxGeometry>
                </mxCell>
                <mxCell id="332" value="I" style="text;html=1;align=center;verticalAlign=middle;resizable=0;points=[];autosize=1;strokeColor=none;fillColor=none;fontSize=30;" vertex="1" parent="1">
                    <mxGeometry x="2725" y="2030" width="30" height="50" as="geometry"/>
                </mxCell>
                <mxCell id="333" value="" style="endArrow=none;html=1;fontSize=30;entryX=0.03;entryY=0.472;entryDx=0;entryDy=0;entryPerimeter=0;" edge="1" parent="1" source="332" target="329">
                    <mxGeometry width="50" height="50" relative="1" as="geometry">
                        <mxPoint x="2820" y="2014.8899999999994" as="sourcePoint"/>
                        <mxPoint x="2870" y="1955" as="targetPoint"/>
                    </mxGeometry>
                </mxCell>
                <mxCell id="334" value="" style="endArrow=none;html=1;fontSize=30;exitX=0;exitY=1;exitDx=0;exitDy=0;" edge="1" parent="1">
                    <mxGeometry width="50" height="50" relative="1" as="geometry">
                        <mxPoint x="1794.9974769132102" y="1944.7923005764887" as="sourcePoint"/>
                        <mxPoint x="2076.05" y="2009.79" as="targetPoint"/>
                    </mxGeometry>
                </mxCell>
                <mxCell id="335" value="" style="endArrow=none;html=1;fontSize=30;exitX=1;exitY=0.5;exitDx=0;exitDy=0;" edge="1" parent="1">
                    <mxGeometry width="50" height="50" relative="1" as="geometry">
                        <mxPoint x="1796.05" y="2044.79" as="sourcePoint"/>
                        <mxPoint x="2076.05" y="2009.79" as="targetPoint"/>
                    </mxGeometry>
                </mxCell>
                <mxCell id="336" value="&lt;span style=&quot;color: rgba(0, 0, 0, 0); font-family: monospace; font-size: 0px; text-align: start;&quot;&gt;%3CmxGraphModel%3E%3Croot%3E%3CmxCell%20id%3D%220%22%2F%3E%3CmxCell%20id%3D%221%22%20parent%3D%220%22%2F%3E%3CmxCell%20id%3D%222%22%20value%3D%22%22%20style%3D%22endArrow%3Dnone%3Bhtml%3D1%3BfontSize%3D30%3BexitX%3D0%3BexitY%3D1%3BexitDx%3D0%3BexitDy%3D0%3B%22%20edge%3D%221%22%20parent%3D%221%22%3E%3CmxGeometry%20width%3D%2250%22%20height%3D%2250%22%20relative%3D%221%22%20as%3D%22geometry%22%3E%3CmxPoint%20x%3D%22288.94747691321027%22%20y%3D%223835.002300576488%22%20as%3D%22sourcePoint%22%2F%3E%3CmxPoint%20x%3D%22570%22%20y%3D%223900%22%20as%3D%22targetPoint%22%2F%3E%3C%2FmxGeometry%3E%3C%2FmxCell%3E%3C%2Froot%3E%3C%2FmxGraphModel%3&lt;/span&gt;" style="text;html=1;align=center;verticalAlign=middle;resizable=0;points=[];autosize=1;strokeColor=none;fillColor=none;fontSize=30;" vertex="1" parent="1">
                    <mxGeometry x="1965" y="1775" width="20" height="50" as="geometry"/>
                </mxCell>
                <mxCell id="337" value="V" style="text;html=1;align=center;verticalAlign=middle;resizable=0;points=[];autosize=1;strokeColor=none;fillColor=none;fontSize=30;" vertex="1" parent="1">
                    <mxGeometry x="1956.05" y="1979.79" width="40" height="50" as="geometry"/>
                </mxCell>
                <mxCell id="338" value="" style="endArrow=none;html=1;fontSize=30;entryX=0;entryY=0.5;entryDx=0;entryDy=0;" edge="1" parent="1" target="318">
                    <mxGeometry width="50" height="50" relative="1" as="geometry">
                        <mxPoint x="2075" y="2010" as="sourcePoint"/>
                        <mxPoint x="2275" y="1690" as="targetPoint"/>
                    </mxGeometry>
                </mxCell>
            </root>
        </mxGraphModel>
    </diagram>
</mxfile>